<?xml version="1.0" encoding="UTF-8" standalone="no"?>
<!-- Created with Inkscape (http://www.inkscape.org/) -->

<svg
   version="1.1"
   id="svg2"
   width="1133.8586"
   height="755.90533"
   viewBox="0 0 1133.8586 755.90533"
   xmlns="http://www.w3.org/2000/svg"
   xmlns:svg="http://www.w3.org/2000/svg">
  <defs
     id="defs6">
    <clipPath
       clipPathUnits="userSpaceOnUse"
       id="clipPath38">
      <path
         d="M 0,566.929 H 850.394 V 0 H 0 Z"
         id="path36" />
    </clipPath>
    <clipPath
       clipPathUnits="userSpaceOnUse"
       id="clipPath98">
      <path
         d="M 0,566.929 H 850.394 V 0 H 0 Z"
         id="path96" />
    </clipPath>
  </defs>
  <g
     id="g8"
     transform="matrix(1.3333333,0,0,-1.3333333,0,755.90533)">
    <g
       id="g10"
       transform="translate(0,566.9289)">
      <path
         d="m 0,0 v -566.929 h 850.394 v 314.228 L 698.547,0 Z"
         style="fill:#d7e8ba;fill-opacity:1;fill-rule:nonzero;stroke:none"
         id="path12" />
    </g>
    <g
       id="g14"
       transform="translate(641.7931)">
      <path
         d="M 0,0 H 208.601 V 355.728 Z"
         style="fill:#93b971;fill-opacity:1;fill-rule:nonzero;stroke:none"
         id="path16" />
    </g>
    <g
       id="g18"
       transform="translate(0,39.0537)">
      <path
         d="M 0,0 84.575,142.933 0,291.013 Z"
         style="fill:#ffffff;fill-opacity:1;fill-rule:nonzero;stroke:none"
         id="path20" />
    </g>
    <path
       d="M 0,0 H 2.734 L 89.029,147.111 0,298.724 Z"
       style="fill:#23671e;fill-opacity:1;fill-rule:nonzero;stroke:none"
       id="path22" />
    <g
       id="g24"
       transform="translate(714.6875,566.9289)">
      <path
         d="M 0,0 135.706,-224.308 V 0 Z"
         style="fill:#918f90;fill-opacity:1;fill-rule:nonzero;stroke:none"
         id="path26" />
    </g>
    <g
       id="g28"
       transform="translate(197.2862,175.5465)">
      <path
         d="m 0,0 -13.859,-0.029 11.469,-6.87 v -1.733 l -11.29,-6.869 H 0 v -3.704 h -20.908 v 3.196 l 13.859,8.303 -13.859,8.154 V 3.645 L 0,3.674 Z"
         style="fill:#918f90;fill-opacity:1;fill-rule:nonzero;stroke:none"
         id="path30" />
    </g>
    <g
       id="g32">
      <g
         id="g34"
         clip-path="url(#clipPath38)">
        <g
           id="g40"
           transform="translate(193.2389,199.8893)">
          <path
             d="M 0,0 C -0.627,1.115 -1.503,1.991 -2.628,2.629 -3.753,3.266 -5.013,3.584 -6.407,3.584 -7.8,3.584 -9.06,3.266 -10.185,2.629 -11.31,1.991 -12.186,1.115 -12.813,0 c -0.627,-1.115 -0.941,-2.37 -0.941,-3.764 0,-1.393 0.314,-2.648 0.941,-3.762 0.627,-1.117 1.503,-1.993 2.628,-2.629 1.125,-0.638 2.385,-0.956 3.778,-0.956 1.394,0 2.654,0.318 3.779,0.956 1.125,0.636 2.001,1.512 2.628,2.629 0.627,1.114 0.941,2.369 0.941,3.762 C 0.941,-2.37 0.627,-1.115 0,0 m 2.957,-9.528 c -0.926,-1.712 -2.21,-3.057 -3.853,-4.033 -1.643,-0.975 -3.479,-1.462 -5.511,-1.462 -2.031,0 -3.867,0.487 -5.51,1.462 -1.643,0.976 -2.927,2.321 -3.854,4.033 -0.925,1.713 -1.388,3.633 -1.388,5.764 0,2.131 0.463,4.052 1.388,5.765 0.927,1.713 2.206,3.057 3.839,4.032 1.633,0.976 3.475,1.464 5.525,1.464 2.052,0 3.894,-0.488 5.526,-1.464 1.633,-0.975 2.912,-2.319 3.838,-4.032 0.926,-1.713 1.389,-3.634 1.389,-5.765 0,-2.131 -0.463,-4.051 -1.389,-5.764"
             style="fill:#918f90;fill-opacity:1;fill-rule:nonzero;stroke:none"
             id="path42" />
        </g>
        <g
           id="g44"
           transform="translate(180.7394,225.2779)">
          <path
             d="m 0,0 c -0.717,-0.877 -1.076,-2.161 -1.076,-3.854 v -4.54 h 8.334 v 4.54 C 7.258,-2.161 6.895,-0.877 6.167,0 5.441,0.876 4.411,1.313 3.076,1.313 1.742,1.313 0.717,0.876 0,0 m 16.547,1.403 -6.123,-4.271 c 0.02,-0.179 0.03,-0.447 0.03,-0.806 v -4.72 h 6.093 v -3.882 H -4.361 v 8.602 c 0,1.812 0.299,3.39 0.896,4.734 0.597,1.344 1.454,2.375 2.569,3.091 1.115,0.717 2.439,1.076 3.972,1.076 1.573,0 2.927,-0.384 4.062,-1.151 C 8.273,3.31 9.12,2.21 9.677,0.776 l 6.87,4.809 z"
             style="fill:#918f90;fill-opacity:1;fill-rule:nonzero;stroke:none"
             id="path46" />
        </g>
        <path
           d="m 176.379,240.211 h 20.908 v -3.883 h -20.908 z"
           style="fill:#918f90;fill-opacity:1;fill-rule:nonzero;stroke:none"
           id="path48" />
        <g
           id="g50"
           transform="translate(179.6637,251.5904)">
          <path
             d="M 0,0 V -6.93 H -3.285 V 10.813 H 0 V 3.883 H 17.623 V 0 Z"
             style="fill:#918f90;fill-opacity:1;fill-rule:nonzero;stroke:none"
             id="path52" />
        </g>
        <g
           id="g54"
           transform="translate(194.0006,283.0709)">
          <path
             d="M 0,0 H 3.286 V -17.831 H 0.687 l -15.024,12.306 v -12.097 h -3.285 v 17.234 h 2.598 L 0,-12.693 Z"
             style="fill:#918f90;fill-opacity:1;fill-rule:nonzero;stroke:none"
             id="path56" />
        </g>
        <g
           id="g58"
           transform="translate(194.0006,314.1041)">
          <path
             d="M 0,0 H 3.286 V -17.831 H 0.687 l -15.024,12.306 v -12.097 h -3.285 v 17.234 h 2.598 L 0,-12.693 Z"
             style="fill:#918f90;fill-opacity:1;fill-rule:nonzero;stroke:none"
             id="path60" />
        </g>
        <path
           d="m 176.379,323.035 h 20.908 v -3.883 h -20.908 z"
           style="fill:#918f90;fill-opacity:1;fill-rule:nonzero;stroke:none"
           id="path62" />
        <g
           id="g64"
           transform="translate(197.2862,349.3776)">
          <path
             d="m 0,0 -13.859,-0.029 11.469,-6.87 v -1.733 l -11.29,-6.869 H 0 v -3.704 h -20.908 v 3.196 l 13.859,8.303 -13.859,8.154 V 3.645 L 0,3.674 Z"
             style="fill:#918f90;fill-opacity:1;fill-rule:nonzero;stroke:none"
             id="path66" />
        </g>
        <g
           id="g68"
           transform="translate(197.2862,379.3951)">
          <path
             d="m 0,0 -13.859,-0.029 11.469,-6.87 v -1.733 l -11.29,-6.869 H 0 v -3.704 h -20.908 v 3.196 l 13.859,8.303 -13.859,8.154 V 3.645 L 0,3.674 Z"
             style="fill:#918f90;fill-opacity:1;fill-rule:nonzero;stroke:none"
             id="path70" />
        </g>
        <g
           id="g72"
           transform="translate(194.0304,405.8883)">
          <path
             d="m 0,0 h 3.256 v -15.681 h -20.908 v 15.263 h 3.256 v -11.38 h 5.436 v 10.096 h 3.196 V -11.798 H 0 Z"
             style="fill:#918f90;fill-opacity:1;fill-rule:nonzero;stroke:none"
             id="path74" />
        </g>
        <g
           id="g76"
           transform="translate(180.7394,423.9884)">
          <path
             d="m 0,0 c -0.717,-0.876 -1.076,-2.161 -1.076,-3.853 v -4.54 h 8.334 v 4.54 C 7.258,-2.161 6.895,-0.876 6.167,0 5.441,0.876 4.411,1.314 3.076,1.314 1.742,1.314 0.717,0.876 0,0 m 16.547,1.404 -6.123,-4.272 c 0.02,-0.178 0.03,-0.447 0.03,-0.805 v -4.72 h 6.093 v -3.883 H -4.361 v 8.603 c 0,1.811 0.299,3.389 0.896,4.734 0.597,1.343 1.454,2.374 2.569,3.091 1.115,0.717 2.439,1.075 3.972,1.075 1.573,0 2.927,-0.384 4.062,-1.15 C 8.273,3.311 9.12,2.21 9.677,0.777 l 6.87,4.808 z"
             style="fill:#918f90;fill-opacity:1;fill-rule:nonzero;stroke:none"
             id="path78" />
        </g>
      </g>
    </g>
    <g
       id="g80"
       transform="translate(667.795,216.457)">
      <path
         d="m 0,0 v -25.024 h -186.036 v 19.94 l 114.804,194.293 h -106.345 l -0.362,25.024 h 157.16 L -32.913,194.293 -147.328,0 Z"
         style="fill:#23671e;fill-opacity:1;fill-rule:nonzero;stroke:none"
         id="path82" />
    </g>
    <g
       id="g84"
       transform="translate(492.9423,430.7403)">
      <path
         d="m 0,0 v -192.745 l -15.435,-25.601 v -20.961 l -12.344,-0.066 v 212.936 l 3.912,26.445 z"
         style="fill:#918f90;fill-opacity:1;fill-rule:nonzero;stroke:none"
         id="path86" />
    </g>
    <g
       id="g88"
       transform="translate(491.641,430.6198)">
      <path
         d="m 0,0 -139.686,-238.893 h -13.684 l -107.523,182.981 v -218.215 h -27.76 V 0 h 23.851 L -145.941,-202.924 -28.254,0 Z"
         style="fill:#23671e;fill-opacity:1;fill-rule:nonzero;stroke:none"
         id="path90" />
    </g>
    <g
       id="g92">
      <g
         id="g94"
         clip-path="url(#clipPath98)">
        <g
           id="g100"
           transform="translate(258.6021,168.5567)">
          <path
             d="m 0,0 h 4.447 v -10.085 c -1.302,-1.036 -2.82,-1.831 -4.555,-2.386 -1.735,-0.555 -3.519,-0.83 -5.351,-0.83 -2.578,0 -4.903,0.559 -6.976,1.68 -2.073,1.121 -3.699,2.668 -4.879,4.644 -1.182,1.977 -1.772,4.206 -1.772,6.689 0,2.48 0.59,4.711 1.772,6.686 1.18,1.976 2.813,3.525 4.898,4.646 2.083,1.119 4.428,1.68 7.031,1.68 2.119,0 4.048,-0.349 5.783,-1.048 1.735,-0.7 3.192,-1.722 4.373,-3.073 L 1.807,5.712 c -1.927,1.927 -4.253,2.891 -6.976,2.891 -1.783,0 -3.368,-0.374 -4.753,-1.121 -1.386,-0.747 -2.471,-1.794 -3.254,-3.144 -0.783,-1.351 -1.174,-2.891 -1.174,-4.626 0,-1.687 0.391,-3.206 1.174,-4.557 0.783,-1.348 1.868,-2.408 3.254,-3.179 1.385,-0.771 2.958,-1.158 4.717,-1.158 1.975,0 3.71,0.435 5.205,1.302 z"
             style="fill:#23671e;fill-opacity:1;fill-rule:nonzero;stroke:none"
             id="path102" />
        </g>
        <g
           id="g104"
           transform="translate(285.8943,165.1587)">
          <path
             d="M 0,0 -4.772,11.062 -9.508,0 Z m 1.554,-3.686 h -12.652 l -2.494,-5.857 h -4.844 L -7.049,15.76 h 4.627 L 9,-9.543 H 4.084 Z"
             style="fill:#23671e;fill-opacity:1;fill-rule:nonzero;stroke:none"
             id="path106" />
        </g>
        <g
           id="g108"
           transform="translate(314.7762,175.6411)">
          <path
             d="m 0,0 c -1.061,0.868 -2.616,1.302 -4.663,1.302 h -5.495 V -8.782 h 5.495 c 2.047,0 3.602,0.439 4.663,1.317 1.06,0.881 1.59,2.129 1.59,3.741 C 1.59,-2.109 1.06,-0.868 0,0 m 1.698,-20.025 -5.169,7.41 c -0.217,-0.024 -0.542,-0.035 -0.976,-0.035 h -5.711 v -7.375 h -4.699 V 5.277 h 10.41 c 2.193,0 4.103,-0.36 5.73,-1.084 C 2.91,3.47 4.156,2.434 5.024,1.086 c 0.867,-1.35 1.301,-2.952 1.301,-4.81 0,-1.903 -0.464,-3.542 -1.391,-4.914 -0.929,-1.375 -2.259,-2.399 -3.994,-3.073 l 5.819,-8.314 z"
             style="fill:#23671e;fill-opacity:1;fill-rule:nonzero;stroke:none"
             id="path110" />
        </g>
        <g
           id="g112"
           transform="translate(332.9221,176.9435)">
          <path
             d="M 0,0 H -8.387 V 3.975 H 13.085 V 0 H 4.699 V -21.328 H 0 Z"
             style="fill:#23671e;fill-opacity:1;fill-rule:nonzero;stroke:none"
             id="path114" />
        </g>
        <g
           id="g116"
           transform="translate(370.334,159.5558)">
          <path
             d="m 0,0 v -3.94 h -18.977 v 25.303 h 18.471 v -3.94 H -14.278 V 10.845 H -2.061 V 6.977 H -14.278 V 0 Z"
             style="fill:#23671e;fill-opacity:1;fill-rule:nonzero;stroke:none"
             id="path118" />
        </g>
        <g
           id="g120"
           transform="translate(399.867,180.9184)">
          <path
             d="M 0,0 V -25.303 H -3.868 L -17.82,-8.168 v -17.135 h -4.664 V 0 h 3.868 L -4.663,-17.132 V 0 Z"
             style="fill:#23671e;fill-opacity:1;fill-rule:nonzero;stroke:none"
             id="path122" />
        </g>
        <g
           id="g124"
           transform="translate(425.7486,168.5567)">
          <path
             d="m 0,0 h 4.447 v -10.085 c -1.302,-1.036 -2.82,-1.831 -4.555,-2.386 -1.735,-0.555 -3.519,-0.83 -5.351,-0.83 -2.578,0 -4.903,0.559 -6.976,1.68 -2.073,1.121 -3.699,2.668 -4.879,4.644 -1.182,1.977 -1.772,4.206 -1.772,6.689 0,2.48 0.59,4.711 1.772,6.686 1.18,1.976 2.813,3.525 4.898,4.646 2.083,1.119 4.428,1.68 7.031,1.68 2.119,0 4.048,-0.349 5.783,-1.048 1.735,-0.7 3.192,-1.722 4.373,-3.073 L 1.807,5.712 c -1.927,1.927 -4.253,2.891 -6.976,2.891 -1.783,0 -3.368,-0.374 -4.753,-1.121 -1.386,-0.747 -2.471,-1.794 -3.254,-3.144 -0.783,-1.351 -1.174,-2.891 -1.174,-4.626 0,-1.687 0.391,-3.206 1.174,-4.557 0.783,-1.348 1.868,-2.408 3.254,-3.179 1.385,-0.771 2.958,-1.158 4.717,-1.158 1.975,0 3.71,0.435 5.205,1.302 z"
             style="fill:#23671e;fill-opacity:1;fill-rule:nonzero;stroke:none"
             id="path126" />
        </g>
        <g
           id="g128"
           transform="translate(457.161,159.5558)">
          <path
             d="m 0,0 v -3.94 h -18.977 v 25.303 h 18.471 v -3.94 H -14.278 V 10.845 H -2.061 V 6.977 H -14.278 V 0 Z"
             style="fill:#23671e;fill-opacity:1;fill-rule:nonzero;stroke:none"
             id="path130" />
        </g>
        <g
           id="g132"
           transform="translate(466.3968,156.0857)">
          <path
             d="m 0,0 c -1.82,0.555 -3.26,1.289 -4.32,2.205 l 1.627,3.651 C -1.657,5.037 -0.387,4.368 1.12,3.85 2.626,3.332 4.139,3.072 5.656,3.072 c 1.88,0 3.283,0.302 4.211,0.905 0.927,0.601 1.392,1.396 1.392,2.384 0,0.723 -0.26,1.32 -0.778,1.79 C 9.963,8.621 9.308,8.988 8.512,9.254 7.717,9.519 6.632,9.82 5.259,10.157 3.33,10.616 1.771,11.072 0.578,11.531 c -1.193,0.457 -2.218,1.176 -3.072,2.151 -0.856,0.976 -1.284,2.296 -1.284,3.959 0,1.397 0.38,2.668 1.138,3.813 0.76,1.143 1.904,2.054 3.434,2.73 1.531,0.673 3.404,1.011 5.622,1.011 1.541,0 3.06,-0.194 4.555,-0.579 1.492,-0.384 2.782,-0.939 3.868,-1.663 l -1.484,-3.649 c -1.108,0.649 -2.264,1.143 -3.47,1.482 C 8.681,21.122 7.512,21.29 6.38,21.29 4.523,21.29 3.145,20.978 2.241,20.351 1.337,19.724 0.885,18.893 0.885,17.858 c 0,-0.724 0.259,-1.314 0.777,-1.773 0.518,-0.456 1.175,-0.819 1.97,-1.084 0.795,-0.264 1.88,-0.566 3.254,-0.904 1.878,-0.433 3.421,-0.885 4.627,-1.355 1.204,-0.47 2.233,-1.187 3.09,-2.15 0.854,-0.964 1.282,-2.266 1.282,-3.905 0,-1.397 -0.378,-2.662 -1.138,-3.796 C 13.989,1.759 12.837,0.854 11.294,0.181 9.754,-0.494 7.872,-0.83 5.656,-0.83 3.705,-0.83 1.819,-0.555 0,0"
             style="fill:#23671e;fill-opacity:1;fill-rule:nonzero;stroke:none"
             id="path134" />
        </g>
        <g
           id="g136"
           transform="translate(493.525,176.9435)">
          <path
             d="M 0,0 H -8.387 V 3.975 H 13.085 V 0 H 4.7 V -21.328 H 0 Z"
             style="fill:#23671e;fill-opacity:1;fill-rule:nonzero;stroke:none"
             id="path138" />
        </g>
        <g
           id="g140"
           transform="translate(525.5536,165.1587)">
          <path
             d="M 0,0 -4.772,11.062 -9.508,0 Z m 1.554,-3.686 h -12.653 l -2.493,-5.857 h -4.845 L -7.049,15.76 h 4.626 L 8.999,-9.543 H 4.084 Z"
             style="fill:#23671e;fill-opacity:1;fill-rule:nonzero;stroke:none"
             id="path142" />
        </g>
        <g
           id="g144"
           transform="translate(539.5782,180.9184)">
          <path
             d="M 0,0 H 4.698 V -21.325 H 17.93 v -3.978 H 0 Z"
             style="fill:#23671e;fill-opacity:1;fill-rule:nonzero;stroke:none"
             id="path146" />
        </g>
        <g
           id="g148"
           transform="translate(565.8204,176.9435)">
          <path
             d="M 0,0 H -8.387 V 3.975 H 13.085 V 0 H 4.698 V -21.328 H 0 Z"
             style="fill:#23671e;fill-opacity:1;fill-rule:nonzero;stroke:none"
             id="path150" />
        </g>
        <g
           id="g152"
           transform="translate(586.499,158.201)">
          <path
             d="M 0,0 C -1.954,1.962 -2.928,4.777 -2.928,8.439 V 22.717 H 1.77 V 8.621 c 0,-4.965 2.146,-7.448 6.435,-7.448 4.266,0 6.399,2.483 6.399,7.448 V 22.717 H 19.23 V 8.439 C 19.23,4.777 18.26,1.962 16.319,0 14.381,-1.964 11.662,-2.946 8.168,-2.946 4.674,-2.946 1.951,-1.964 0,0"
             style="fill:#23671e;fill-opacity:1;fill-rule:nonzero;stroke:none"
             id="path154" />
        </g>
        <g
           id="g156"
           transform="translate(636.5971,180.9184)">
          <path
             d="M 0,0 V -25.303 H -3.868 L -17.82,-8.168 v -17.135 h -4.664 V 0 h 3.868 L -4.663,-17.132 V 0 Z"
             style="fill:#23671e;fill-opacity:1;fill-rule:nonzero;stroke:none"
             id="path158" />
        </g>
        <g
           id="g160"
           transform="translate(662.4787,168.5567)">
          <path
             d="m 0,0 h 4.447 v -10.085 c -1.302,-1.036 -2.821,-1.831 -4.556,-2.386 -1.735,-0.555 -3.518,-0.83 -5.35,-0.83 -2.578,0 -4.903,0.559 -6.975,1.68 -2.074,1.121 -3.699,2.668 -4.882,4.644 -1.18,1.977 -1.77,4.206 -1.77,6.689 0,2.48 0.59,4.711 1.77,6.686 1.183,1.976 2.815,3.525 4.9,4.646 2.084,1.119 4.427,1.68 7.029,1.68 2.122,0 4.05,-0.349 5.785,-1.048 1.735,-0.7 3.192,-1.722 4.374,-3.073 L 1.807,5.712 c -1.927,1.927 -4.252,2.891 -6.975,2.891 -1.785,0 -3.37,-0.374 -4.755,-1.121 -1.385,-0.747 -2.469,-1.794 -3.254,-3.144 -0.782,-1.351 -1.173,-2.891 -1.173,-4.626 0,-1.687 0.391,-3.206 1.173,-4.557 0.785,-1.348 1.869,-2.408 3.254,-3.179 1.385,-0.771 2.959,-1.158 4.718,-1.158 1.975,0 3.71,0.435 5.205,1.302 z"
             style="fill:#23671e;fill-opacity:1;fill-rule:nonzero;stroke:none"
             id="path162" />
        </g>
        <g
           id="g164"
           transform="translate(798.8349,44.2783)">
          <path
             d="m 0,0 c 1.102,1.011 -9.397,15.967 -13.545,20.692 -1.883,2.144 -3.932,3.884 -7.191,3.807 -3.434,-0.082 -7.077,-2.792 -8.554,-3.752 -2.071,-1.346 -8.628,-5.561 -11.195,-8.503 -2.745,-3.138 -0.814,-5.805 2.98,-7.217 C -23.135,-0.33 -1.435,-1.315 0,0"
             style="fill:#ffffff;fill-opacity:1;fill-rule:nonzero;stroke:none"
             id="path166" />
        </g>
        <g
           id="g168"
           transform="translate(751.0062,91.2791)">
          <path
             d="m 0,0 c 3.31,-2.39 12.927,-11.503 15.268,-15.04 2.783,-4.201 4.324,-6.667 2.761,-7.496 -0.761,-0.399 -2.852,-0.326 -5.034,0.31 -0.798,0.235 -2.909,0.858 -3.09,-0.175 -0.105,-0.597 0.709,-1.896 2.376,-2.714 2.262,-1.113 4.87,-1.142 6.497,-0.929 0.781,0.1 -5.991,-5.322 -5.991,-5.322 0,0 -4.14,4.508 -6.166,9.198 -0.679,1.581 -0.286,3.521 2.552,3.013 3.949,-0.707 8.381,-2.488 6.095,0.392 C 12.217,-14.92 2.146,-8.29 -4.122,-5.658 -6.709,-4.572 -2.55,1.843 0,0"
             style="fill:#ffffff;fill-opacity:1;fill-rule:nonzero;stroke:none"
             id="path170" />
        </g>
      </g>
    </g>
  </g>
</svg>
